# xmcd
#
# Track frame offsets:
#	150
#	15100
#	26600
#	43975
#	61225
#	72275
#	88200
#	98925
#	115350
#	131300
#	150025
#
# Disc length: 2311 seconds
#
# Revision: 0
# Processed by: cddbd v1.4PL0 Copyright (c) Steve Scherf et al.
# Submitted via: EasyCDDAExtractor 4.6.9.1
#
DISCID=8209050b
DTITLE=Michel Charest - Mon Secret D'amour Au Bord De La Mer
DYEAR=1900
DGENRE=
TTITLE0=Mon Secret D'amour Au Bord De La Mer
TTITLE1=Les Cow-boys Du Quebec
TTITLE2=Un Jour A La Fois
TTITLE3=Personne Au Monde
TTITLE4=Moi, Je Bois De La Bierre
TTITLE5=Un Coin Du Ciel
TTITLE6=Un Verre, Une Bouteille
TTITLE7=Vous Vous Etes Tant Aimes
TTITLE8=On A Besoin De Soleil
TTITLE9=Toutes Les Femmes Sont Belles
TTITLE10=Que La Lune Est Belle Ce Soir
EXTD=
EXTT0=
EXTT1=
EXTT2=
EXTT3=
EXTT4=
EXTT5=
EXTT6=
EXTT7=
EXTT8=
EXTT9=
EXTT10=
PLAYORDER=
